# xmcd
#
# Track frame offsets: 
#        150
#        14107
#        27472
#        44259
#        58572
#        72301
#        85997
#        100545
#        116282
#        130573
#        144314
#        159289
#        173465
#        187109
#        201512
#        216995
#        231278
#        246411
#        259320
#        274826
#
# Disc length: 3848 seconds
#
# Revision: 0
# Processed by: cddbd v1.5.2PL0 Copyright (c) Steve Scherf et al.
# Submitted via: ExactAudioCopy v0.95b3
#
DISCID=230f0614
DTITLE=Bessie Smith  - Nashville Woman's Blues
DYEAR=1900
DGENRE=Blues
TTITLE0=Woman's Trouble Blues
TTITLE1=Dying Gambler's Blues
TTITLE2=Nashville Woman's Blues
TTITLE3=The St. Louis Blues
TTITLE4=Reckless Blues
TTITLE5=Sobbin'n Hearted Blues
TTITLE6=Cold In Hand Blues
TTITLE7=You've Been A Good Old Wagon
TTITLE8=Cake Walking Babies (From Home)
TTITLE9=The Yellow Dog Blues
TTITLE10=Soft Pedal Blues
TTITLE11=Dixie Flyer Blues
TTITLE12=Sweet Misstreater
TTITLE13=Mean Old Bedbug Blues
TTITLE14=Careless Love Blues
TTITLE15=He's Gone Blues
TTITLE16=I Ain't Gonna Play Second Fiddle
TTITLE17=Nobody's Blues But Mine
TTITLE18=Down Hearted Blues
TTITLE19=Gulf Coast Blues
EXTD=
EXTT0=
EXTT1=
EXTT2=
EXTT3=
EXTT4=
EXTT5=
EXTT6=
EXTT7=
EXTT8=
EXTT9=
EXTT10=
EXTT11=
EXTT12=
EXTT13=
EXTT14=
EXTT15=
EXTT16=
EXTT17=
EXTT18=
EXTT19=
PLAYORDER=
